PathFileType	4	(X/Y/Z)	C:/Users/beibeiliu/ov580/test_trc/User2\sequence.22_training_dense_left.trc
DataRate	CameraRate	NumFrames	NumMarkers	Units	OrigDataRate	OrigDataStartFrame	OrigNumFrames
120	120	24	19	mm	120	274	364
Frame#	Time	ThumbCMC			ThumbMCP			ThumbIP			ThumbTip			IndexMCP			IndexPIP			IndexTip			MiddleMCP			MiddlePIP			MiddleTip			RingMCP			RingPIP			RingTip			PinkyMCP			PinkyPIP			PinkyTip			BackHand1			BackHand2			BackHand3	
		X0	Y0	Z0	X1	Y1	Z1	X2	Y2	Z2	X3	Y3	Z3	X4	Y4	Z4	X5	Y5	Z5	X6	Y6	Z6	X7	Y7	Z7	X8	Y8	Z8	X9	Y9	Z9	X10	Y10	Z10	X11	Y11	Z11	X12	Y12	Z12	X13	Y13	Z13	X14	Y14	Z14	X15	Y15	Z15	X16	Y16	Z16	X17	Y17	Z17	X18	Y18	Z18	
273	2.275	-173.863	17.1152	87.1069	-157.904	22.2851	56.4794	-150.521	7.22143	21.7822	-147.945	-17.7974	11.6812	-196.908	3.26104	11.4308	-171.052	3.83162	-9.66797	-154.645	5.23007	23.2311	-199.028	-24.0073	4.97402	-171.304	-25.2155	-16.3312	-151.924	-14.5558	18.7258	-192.515	-47.7454	7.9359	-171.129	-41.417	-11.7532	-143.912	-31.575	16.5455	-188.358	-63.6873	36.5464	-197.227	-72.5273	5.5029	-199.855	-70.1467	-18.2044	-199.453	-47.1961	72.797	-200.87	-44.0299	105.114	-204.141	-13.1081	84.7928	
274	2.28333	-160.339	10.6358	93.5856	-144.496	19.4777	60.4848	-142.081	10.1713	22.2452	-148.032	-13.8519	5.74643	-191.072	10.9843	16.1588	-169.192	7.24496	-5.46013	-151.014	-0.207213	26.8451	-201.729	-7.60167	8.34848	-173.147	-10.9923	-13.5347	-152.179	-16.4492	19.4739	-200.382	-33.8493	9.81999	-177.472	-35.5223	-10.6925	-150.296	-36.3273	15.1806	-204.5	-55.4113	32.6863	-211.804	-56.1789	4.15777	-213.669	-52.4215	-23.4504	-204.25	-34.6285	71.9064	-205.036	-36.4812	102.381	-199.542	-3.56797	92.1578	
275	2.29167	-147.422	4.7281	97.9063	-132.58	10.1667	65.6594	-133.69	8.12123	27.3415	-148.743	-9.24136	4.51914	-179.324	26.7977	24.4515	-157.996	15.3479	0.592123	-144.786	-1.84054	28.8844	-195.192	8.40976	11.9373	-168.87	-1.71881	-8.83075	-155.375	-20.6579	23.3724	-201.319	-13.0132	14.9521	-180.372	-23.005	-9.01307	-155.545	-34.8779	19.243	-211.653	-34.9466	33.4865	-219.905	-29.5556	4.64897	-219.109	-25.2268	-24.2702	-207.83	-26.5014	73.1281	-209.734	-31.1178	104.097	-189.421	2.84909	94.39	
276	2.3	-142.916	-10.2667	102.786	-125.395	-0.979469	70.2276	-126.188	1.30332	36.0713	-141.232	-3.85249	10.3341	-162.678	35.0643	30.815	-150.09	24.5975	6.56218	-140.631	-2.70642	29.0942	-184.064	23.1864	18.9642	-163.751	7.40224	-4.34216	-151.464	-18.66	26.1478	-198.711	0.951734	17.1777	-181.153	-9.78078	-6.38576	-160.336	-29.5585	17.3587	-216.026	-15.3949	32.3898	-222.656	-7.20871	8.71147	-220.718	2.75796	-19.1259	-206.68	-12.6641	76.8517	-208.194	-23.8456	105.561	-181.383	4.43044	101.773	
277	2.30833	-138.962	-19.8709	105.623	-124.584	-11.4609	73.3123	-123.104	-4.2247	38.0545	-134.734	-3.18844	12.6095	-150.264	36.3321	38.1775	-136.865	23.6032	14.0735	-135.188	-5.67423	36.5041	-174.637	28.644	27.3056	-159.107	14.1436	-0.367619	-151.578	-18.8564	28.319	-190.025	14.6024	21.7199	-178.2	-0.126213	-3.49293	-161.116	-24.81	21.9863	-212.724	-3.27627	36.3811	-213.739	13.5849	12.1485	-218.287	24.6869	-11.4131	-205.8	-7.944	78.3295	-207.344	-20.4141	108.686	-176.81	1.88433	101.699	
278	2.31667	-138.019	-24.6095	106.251	-118.88	-15.7064	72.9164	-118.323	-5.94988	37.946	-130.701	-2.29351	10.9395	-141.532	35.8048	42.1819	-131.666	21.0019	17.0278	-133.121	-8.54018	37.2555	-165.199	31.6121	29.7858	-152.901	12.6301	1.25664	-150.332	-18.9779	26.8901	-187.62	16.7399	23.3372	-173.155	1.11459	-1.14504	-162.798	-25.5282	20.3829	-211.876	1.33762	37.1903	-208.388	21.3799	13.631	-209.135	33.9472	-4.57553	-203.747	-4.7616	78.9342	-206.871	-16.8917	110.951	-171.447	2.13256	104.186	
279	2.325	-137.338	-24.876	104.29	-123.954	-19.8523	72.8706	-115.645	-7.43705	36.411	-127.87	-3.47829	11.3637	-141.18	34.0958	40.9068	-128.772	20.3524	17.1543	-134.311	-9.78654	39.4243	-164.233	29.7385	26.0036	-151.683	9.12458	1.50054	-149.953	-22.2943	26.7094	-185.27	17.5822	21.2459	-171.045	-0.686523	-1.20119	-162.206	-25.5012	23.2949	-208.898	3.87573	35.4252	-209.879	18.5093	16.5923	-211.791	34.3211	-3.73567	-197.82	0.288095	79.186	-209.147	-14.9656	108.489	-172.682	1.12085	107.875	
280	2.33333	-137.918	-26.897	104.297	-121.947	-20.3297	70.9499	-121.446	-10.0638	37.3786	-125.958	-6.18418	11.5704	-142.32	30.7824	41.1865	-134.871	18.965	13.3214	-134.926	-10.9844	33.7226	-160.533	28.237	26.9148	-152.016	9.88626	-0.0823467	-147.307	-24.1047	25.4052	-185.268	16.4265	23.4024	-168.506	-1.69079	-1.26643	-165.584	-29.2919	22.3766	-208.48	4.47341	35.3028	-209.384	20.0655	13.0171	-210.007	35.7621	-4.57395	-200.363	-0.0636958	79.2988	-210.411	-16.5616	110.007	-173.991	-0.512733	105.843	
281	2.34167	-141.323	-26.9134	100.175	-120.999	-20.8684	68.4792	-118.572	-15.1668	36.7226	-130.81	-10.1353	11.6805	-142.474	27.3125	37.7704	-131.377	12.3893	10.5388	-135.24	-14.0281	34.9607	-160.852	26.3298	21.5465	-151.304	1.74042	-2.02517	-153.18	-27.2565	22.3411	-182.626	15.1784	17.2574	-173.169	-3.81855	-4.5996	-162.931	-30.2989	22.1089	-210.927	1.24799	33.6903	-206.388	20.0515	10.1736	-210.041	35.563	-9.55435	-199.072	-0.863947	76.2316	-208.408	-14.8788	107.339	-172.53	-0.503756	102.036	
282	2.35	-137.663	-25.1248	97.9033	-123.047	-25.76	70.0911	-114.542	-18.7901	36.0093	-126.299	-13.7611	6.17734	-140.774	25.1672	30.6781	-132.282	8.31697	7.71264	-137.368	-18.0536	34.833	-164.716	21.0321	16.8153	-151.244	-1.4887	-5.53157	-153.671	-31.3708	18.5705	-182.753	12.3174	14.6487	-171.549	-8.41439	-5.88249	-169.08	-37.5225	19.906	-208.134	2.96277	30.4711	-210.491	16.6591	6.70361	-209.814	31.333	-11.2421	-199.425	1.36629	75.8679	-210.157	-14.4506	104.882	-169.403	2.55015	100.803	
283	2.35833	-141.256	-27.4424	97.8377	-123.962	-24.8705	66.0654	-116.297	-20.5803	34.2646	-119.882	-17.7843	6.99461	-141.688	18.1325	28.8545	-134.713	1.4973	3.27747	-140.403	-24.3209	31.3587	-163.207	16.2115	14.3218	-156.831	-7.31385	-8.86767	-156.734	-38.2648	16.7695	-188.528	5.3192	12.3993	-177.634	-16.8224	-8.79333	-170.39	-41.9657	17.1818	-210.961	-2.17656	27.692	-213.216	8.08657	5.33132	-212.228	23.9512	-11.4293	-204.106	-1.9435	74.6326	-204.524	-12.1716	106.06	-168.57	2.38036	97.4597	
284	2.36667	-142.498	-30.4077	96.7847	-124.93	-30.136	67.7124	-114.344	-24.0777	34.8291	-121.455	-20.7894	7.07226	-144.254	10.5205	25.1143	-139.694	-13.1969	0.0900438	-140.55	-32.633	29.5252	-165.103	9.48389	13.517	-157.607	-14.3308	-11.773	-157.058	-44.9322	16.4908	-186.509	-0.798391	10.3194	-178.917	-22.2264	-10.3228	-170.443	-47.6924	15.8316	-208.388	-5.0817	25.5762	-211.246	1.15239	4.91632	-214.731	16.4914	-19.414	-198.954	-2.83682	71.5353	-209.352	-11.1326	106.59	-166.447	0.0232218	95.6799	
285	2.375	-142.413	-29.7779	94.6831	-123.791	-29.7574	66.1544	-117.306	-26.6176	34.1358	-113.814	-24.222	6.59181	-146.192	3.02779	16.1573	-137.761	-21.5489	-3.13615	-141.209	-41.4044	24.3322	-167.739	1.48358	6.28466	-159.253	-27.9494	-11.8174	-159.158	-52.1695	19.0267	-190.255	-7.47852	10.6493	-179.937	-30.8416	-9.98003	-176.065	-55.7114	18.1018	-209.701	-10.558	25.7354	-214.601	-4.28383	0.461378	-214.434	5.95442	-19.602	-200.57	-3.49117	72.4123	-205.968	-9.63801	101.238	-168.037	-1.21917	94.5751	
286	2.38333	-143.257	-28.0026	91.951	-126.68	-31.424	66.8334	-117.194	-26.3244	31.1796	-116.483	-25.9698	5.97642	-148.883	-4.28364	11.4368	-143.672	-28.7436	-6.08436	-144.661	-49.7843	20.7692	-171.237	-7.56092	7.20136	-164.009	-37.406	-12.4491	-162.048	-59.1873	24.3047	-187.969	-16.0148	4.76751	-182.967	-44.8135	-9.06484	-176.132	-62.8235	23.7442	-214.186	-18.4856	25.7368	-212.594	-13.0204	1.64071	-213.151	-2.99405	-23.1363	-202.215	-8.30458	66.7492	-202.774	-8.88155	101.456	-167.41	-1.60977	91.5531	
287	2.39167	-142.128	-26.4402	94.6292	-130.12	-29.1254	63.4916	-115.804	-27.5849	30.7415	-112.954	-29.7839	4.72309	-151.196	-11.3408	8.8886	-148.246	-37.0456	-7.22197	-142.075	-56.9069	26.123	-173.533	-17.5204	5.13105	-162.721	-53.3749	-7.98947	-160.189	-65.861	28.5322	-191.899	-27.2884	6.49446	-182.244	-53.3114	-7.25111	-173.342	-69.2083	27.389	-214.235	-26.9146	26.6524	-212.289	-23.0977	-0.521342	-209.498	-17.1261	-22.9808	-205.275	-10.5015	65.2474	-207.514	-9.9718	102.877	-169.457	-0.971111	87.861	
288	2.4	-142.543	-27.4334	94.5878	-124.335	-32.101	66.3717	-116.371	-32.5465	31.3563	-112.409	-37.9061	10.6245	-155.03	-18.0016	11.1715	-147.588	-44.8127	-5.75086	-143.254	-64.1962	25.7763	-175.092	-27.4388	2.98526	-166.982	-60.6058	-4.18268	-159.354	-71.1171	36.3195	-196.399	-34.065	8.11333	-182.132	-59.7082	-2.7226	-173.023	-72.6535	29.3729	-214.322	-30.8542	27.7514	-211.72	-29.4352	-1.51048	-209.116	-23.6706	-25.4577	-205.507	-12.8707	70.0738	-205.236	-11.1188	102.105	-171.076	-2.42724	83.3569	
289	2.40833	-138.896	-27.7332	97.8486	-123.29	-35.3125	68.8238	-115.826	-38.1462	32.2415	-110.125	-44.3172	10.743	-150.46	-22.5937	15.1703	-149.795	-53.4003	-0.439783	-146.038	-68.4646	30.6771	-172.85	-31.3578	8.62102	-167.047	-65.5939	-1.98217	-160.991	-74.4029	42.6757	-190.92	-38.3038	8.53537	-181.211	-66.7869	1.81815	-176.943	-77.6775	37.9073	-212.537	-34.2449	30.4116	-210.61	-33.2108	5.51584	-207.643	-30.8133	-23.6851	-201.494	-14.9471	67.8631	-203.639	-6.92722	102.149	-170.588	-2.08055	86.1847	
290	2.41667	-135.835	-28.2891	98.9102	-121.309	-36.1277	67.8681	-114.417	-42.3906	32.9779	-118.479	-50.601	8.893	-148.555	-27.0683	17.0056	-148.424	-59.6284	2.77225	-143.534	-72.8683	33.1772	-170.531	-38.3328	7.05936	-165.838	-72.716	4.72892	-157.137	-77.65	44.7159	-189.752	-43.2785	11.2563	-182.462	-72.7757	6.52585	-175.076	-79.5546	43.1894	-211.86	-36.353	33.9662	-212.338	-38.261	2.38778	-210.586	-39.0537	-19.4811	-196.954	-12.5039	73.0034	-201.223	-6.02578	102.291	-167.499	-4.90873	83.5289	
291	2.425	-133.531	-26.1773	98.8653	-123.475	-37.6175	70.9469	-114.551	-45.2637	37.3801	-116.148	-54.9294	15.7984	-143.662	-30.5047	13.8265	-146.279	-61.1033	5.22349	-142.751	-73.5339	38.0622	-166.236	-36.9865	10.4378	-163.713	-72.8964	6.18419	-155.818	-76.8817	46.4449	-189.705	-43.8492	14.9769	-183.958	-73.1989	9.10494	-173.72	-79.4402	46.7082	-210.649	-35.9216	29.6207	-207.402	-40.0005	7.29867	-208.236	-40.5999	-16.7534	-199.683	-15.3559	71.1807	-202.346	-5.71422	103.758	-163.84	-1.58279	87.4639	
292	2.43333	-132.252	-25.2404	100.651	-120.986	-35.7688	73.9664	-111.868	-43.8074	42.061	-116.813	-51.9198	15.1876	-145.199	-28.8737	17.8335	-141.894	-56.3197	6.09486	-139.86	-70.6781	39.7199	-166.386	-36.2107	12.029	-156.633	-71.8524	9.48212	-154.719	-75.0622	46.7043	-184.072	-41.2414	14.2906	-177.064	-74.2424	12.3569	-173.34	-77.5816	44.946	-208.703	-34.2606	34.9414	-205.801	-36.2562	8.30275	-201.487	-36.37	-15.7512	-197.681	-12.5971	73.9541	-194.842	-5.53598	102.354	-162.004	-0.443207	89.5212	
293	2.44167	-133.24	-24.5413	107.098	-115.312	-32.6223	78.9702	-110.403	-37.4174	39.3969	-111.647	-45.5471	19.3253	-138.641	-20.7709	22.5568	-136.668	-51.2634	6.66491	-133.121	-66.5709	37.351	-157.25	-28.2394	9.37234	-154.823	-62.8576	6.60143	-155.405	-67.8157	46.3593	-179.884	-32.2943	16.8477	-172.299	-61.5627	6.72842	-170.282	-72.4659	42.701	-199.449	-27.981	34.2865	-197.176	-28.3762	6.15882	-194.693	-27.1078	-18.7641	-194.712	-8.64943	70.7178	-195.41	-1.40832	101.846	-158.455	0.449491	90.1604	
294	2.45	-129.042	-20.6246	105.849	-115.456	-24.8054	77.8468	-107.362	-28.8792	45.8406	-107.182	-34.6516	20.7951	-133.733	-10.7185	24.7506	-133.235	-39.425	5.65831	-130.574	-56.9776	39.6947	-157.082	-18.3017	11.752	-151.331	-50.1126	2.38041	-149.069	-59.5325	46.282	-178.003	-23.1993	15.6644	-170.346	-53.921	5.6337	-167.63	-64.301	39.1811	-199.538	-17.1448	29.6344	-196.384	-17.3405	3.53792	-191.259	-15.4364	-22.3878	-190.403	-3.26168	72.238	-197.922	1.3801	108.397	-159.036	4.5523	96.5152	
295	2.45833	-132.338	-19.0537	109.204	-111.116	-20.1349	79.1013	-105.359	-20.5602	47.3819	-98.6741	-21.2629	19.1367	-129.574	-1.95511	21.9832	-129.727	-28.9936	6.09733	-127.927	-48.8503	34.4808	-150.975	-5.74651	16.167	-148.187	-38.0338	0.344969	-147.847	-52.3978	41.5082	-172.533	-12.7631	16.6193	-166.81	-44.5258	4.20518	-159.723	-53.4138	36.5363	-197.508	-10.6761	32.4829	-191.788	-5.23063	5.05527	-186.724	-1.04638	-20.1574	-186.181	2.7654	76.4604	-194.225	3.22226	105.716	-157.249	7.21112	97.9812	
296	2.46667	-129.931	-16.4927	109.804	-113.585	-16.8086	80.6871	-100.126	-10.041	44.7181	-92.3792	-11.0447	22.3851	-128.595	6.40105	24.1549	-124.041	-15.9343	4.31777	-127.128	-41.0667	33.2159	-147.382	2.67508	14.5197	-142.421	-29.416	0.692061	-147.317	-46.2069	36.0436	-171.047	-2.845	17.0688	-165.262	-31.961	0.920975	-161.171	-47.5023	32.5433	-193.719	-0.959213	31.6701	-187.398	4.77939	7.17103	-184.23	10.1411	-13.1195	-187.092	8.55158	74.2082	-190.259	4.54432	109.25	-155.563	11.6191	101.175	
